<svg width="995" height="325" viewBox="0 0 995 325" fill="none" xmlns="http://www.w3.org/2000/svg">
<g filter="url(#filter0_d)">
<path d="M815.5 102L866.162 131.5V190.5L815.5 220L764.838 190.5V131.5L815.5 102Z" fill="#ECECEC"/>
<path d="M815.5 122L849.708 141.5V180.5L815.5 200L781.292 180.5V141.5L815.5 122Z" fill="#F6F6F6"/>
<path d="M639.5 196L690.162 225.25V283.75L639.5 313L588.838 283.75V225.25L639.5 196Z" fill="#ECECEC"/>
<path d="M639.5 215L673.708 234.75V274.25L639.5 294L605.292 274.25V234.75L639.5 215Z" fill="#F6F6F6"/>
<path d="M522.5 196L573.162 225.25V283.75L522.5 313L471.838 283.75V225.25L522.5 196Z" fill="#ECECEC"/>
<path d="M522.5 215L556.708 234.75V274.25L522.5 294L488.292 274.25V234.75L522.5 215Z" fill="#F6F6F6"/>
<path d="M698 98L749.095 127.25V185.75L698 215L646.905 185.75V127.25L698 98Z" fill="#ECECEC"/>
<path d="M698 117L731.775 136.75V176.25L698 196L664.225 176.25V136.75L698 117Z" fill="#F6F6F6"/>
<path d="M466 98L517.095 127.25V185.75L466 215L414.905 185.75V127.25L466 98Z" fill="#ECECEC"/>
<path d="M465.5 117L499.708 136.75V176.25L465.5 196L431.292 176.25V136.75L465.5 117Z" fill="#F6F6F6"/>
<path d="M406.5 200L457.162 229.25V287.75L406.5 317L355.838 287.75V229.25L406.5 200Z" fill="#ECECEC"/>
<path d="M406.5 219L440.708 238.75V278.25L406.5 298L372.292 278.25V238.75L406.5 219Z" fill="#F6F6F6"/>
<path d="M348.5 98L399.162 127.25V185.75L348.5 215L297.838 185.75V127.25L348.5 98Z" fill="#ECECEC"/>
<path d="M348.5 117L382.708 136.75V176.25L348.5 196L314.292 176.25V136.75L348.5 117Z" fill="#F6F6F6"/>
<path d="M406.5 0L457.162 29.25V87.75L406.5 117L355.838 87.75V29.25L406.5 0Z" fill="#ECECEC"/>
<path d="M406.5 19L440.708 38.75V78.25L406.5 98L372.292 78.25V38.75L406.5 19Z" fill="#F6F6F6"/>
<path d="M116 95L167.095 124.5V183.5L116 213L64.9045 183.5V124.5L116 95Z" fill="#ECECEC"/>
<path d="M116 115L149.775 134.5V173.5L116 193L82.225 173.5V134.5L116 115Z" fill="#F6F6F6"/>
<path d="M291 199L342.095 228.25V286.75L291 316L239.905 286.75V228.25L291 199Z" fill="#ECECEC"/>
<path d="M291 218L324.775 237.75V277.25L291 297L257.225 277.25V237.75L291 218Z" fill="#F6F6F6"/>
<path d="M176 196L227.095 225.25V283.75L176 313L124.905 283.75V225.25L176 196Z" fill="#ECECEC"/>
<path d="M176 215L209.775 234.75V274.25L176 294L142.225 274.25V234.75L176 215Z" fill="#F6F6F6"/>
<path d="M58.5 196L109.162 225.25V283.75L58.5 313L7.83751 283.75V225.25L58.5 196Z" fill="#ECECEC"/>
<path d="M58.5 215L92.708 234.75V274.25L58.5 294L24.292 274.25V234.75L58.5 215Z" fill="#F6F6F6"/>
<path d="M757 196L808.095 225.25V283.75L757 313L705.905 283.75V225.25L757 196Z" fill="#ECECEC"/>
<path d="M757 215L790.775 234.75V274.25L757 294L723.225 274.25V234.75L757 215Z" fill="#F6F6F6"/>
<path d="M873.5 4L924.162 33.25V91.75L873.5 121L822.838 91.75V33.25L873.5 4Z" fill="#ECECEC"/>
<path d="M873.5 23L907.708 42.75V82.25L873.5 102L839.292 82.25V42.75L873.5 23Z" fill="#F6F6F6"/>
<path d="M874.5 196L925.162 225.25V283.75L874.5 313L823.838 283.75V225.25L874.5 196Z" fill="#ECECEC"/>
<path d="M874.5 215L908.708 234.75V274.25L874.5 294L840.292 274.25V234.75L874.5 215Z" fill="#F6F6F6"/>
<path d="M989.5 200L1040.16 229.25V287.75L989.5 317L938.838 287.75V229.25L989.5 200Z" fill="#ECECEC"/>
<path d="M989.5 219L1023.71 238.75V278.25L989.5 298L955.292 278.25V238.75L989.5 219Z" fill="#F6F6F6"/>
<path d="M930.5 102L981.162 131.25V189.75L930.5 219L879.838 189.75V131.25L930.5 102Z" fill="#ECECEC"/>
<path d="M930.5 121L964.708 140.75V180.25L930.5 200L896.292 180.25V140.75L930.5 121Z" fill="#F6F6F6"/>
<path d="M990.5 3L1041.16 32.25V90.75L990.5 120L939.838 90.75V32.25L990.5 3Z" fill="#ECECEC"/>
<path d="M990.5 22L1024.71 41.75V81.25L990.5 101L956.292 81.25V41.75L990.5 22Z" fill="#F6F6F6"/>
</g>
<defs>
<filter id="filter0_d" x="3.83752" y="0" width="1041.32" height="325" filterUnits="userSpaceOnUse" color-interpolation-filters="sRGB">
<feFlood flood-opacity="0" result="BackgroundImageFix"/>
<feColorMatrix in="SourceAlpha" type="matrix" values="0 0 0 0 0 0 0 0 0 0 0 0 0 0 0 0 0 0 127 0"/>
<feOffset dy="4"/>
<feGaussianBlur stdDeviation="2"/>
<feColorMatrix type="matrix" values="0 0 0 0 0 0 0 0 0 0 0 0 0 0 0 0 0 0 0.25 0"/>
<feBlend mode="normal" in2="BackgroundImageFix" result="effect1_dropShadow"/>
<feBlend mode="normal" in="SourceGraphic" in2="effect1_dropShadow" result="shape"/>
</filter>
</defs>
</svg>
